<svg xmlns="http://www.w3.org/2000/svg" viewBox="0 0 512 512" width="512" height="512">
  <defs>
    <linearGradient id="bg" x1="0%" y1="0%" x2="100%" y2="100%">
      <stop offset="0%" stop-color="#1a1a2e"/>
      <stop offset="100%" stop-color="#3b1a8f"/>
    </linearGradient>
    <linearGradient id="bowl-shine" x1="20%" y1="10%" x2="80%" y2="90%">
      <stop offset="0%" stop-color="#ffffff"/>
      <stop offset="100%" stop-color="#ddd0ff"/>
    </linearGradient>
    <linearGradient id="text-grad" x1="0%" y1="0%" x2="100%" y2="100%">
      <stop offset="0%" stop-color="#ffffff"/>
      <stop offset="100%" stop-color="#c4b5fd"/>
    </linearGradient>
  </defs>
  <rect width="512" height="512" rx="112" ry="112" fill="url(#bg)"/>
  <ellipse cx="256" cy="210" rx="170" ry="150" fill="rgba(120,80,255,0.2)"/>
  <g fill="rgba(255,255,255,0.5)">
    <circle cx="90" cy="100" r="4"/>
    <circle cx="415" cy="130" r="3"/>
    <circle cx="78" cy="200" r="2.5"/>
    <circle cx="430" cy="220" r="2"/>
    <circle cx="108" cy="310" r="2"/>
  </g>
  <path d="M420 85 L423 93 L432 93 L425 98 L428 107 L420 102 L412 107 L415 98 L408 93 L417 93 Z" fill="rgba(255,255,255,0.45)"/>
  <path d="M75 150 L77 156 L83 156 L78 160 L80 166 L75 162 L70 166 L72 160 L67 156 L73 156 Z" fill="rgba(255,255,255,0.35)"/>
  <ellipse cx="256" cy="305" rx="120" ry="16" fill="rgba(0,0,0,0.25)"/>
  <path d="M136 240 Q136 310 256 310 Q376 310 376 240 Z" fill="url(#bowl-shine)" opacity="0.96"/>
  <ellipse cx="256" cy="240" rx="120" ry="22" fill="url(#bowl-shine)" opacity="0.96"/>
  <ellipse cx="256" cy="240" rx="104" ry="17" fill="#cfc0f5"/>
  <ellipse cx="256" cy="235" rx="88" ry="13" fill="white" opacity="0.92"/>
  <ellipse cx="250" cy="229" rx="65" ry="9" fill="white" opacity="0.7"/>
  <g stroke="rgba(255,255,255,0.65)" stroke-width="5.5" stroke-linecap="round" fill="none">
    <path d="M208 208 Q213 192 208 176 Q203 160 208 145"/>
    <path d="M256 202 Q261 184 256 168 Q251 152 256 136"/>
    <path d="M304 208 Q309 192 304 176 Q299 160 304 145"/>
  </g>
  <text x="256" y="400" text-anchor="middle"
        font-family="NanumGothic,sans-serif"
        font-size="76" font-weight="900"
        fill="url(#text-grad)" letter-spacing="-2">오늘급식</text>
  <g fill="rgba(255,255,255,0.4)">
    <circle cx="140" cy="425" r="3.5"/>
    <circle cx="372" cy="425" r="3.5"/>
  </g>
  <line x1="172" y1="422" x2="340" y2="422" stroke="rgba(255,255,255,0.2)" stroke-width="1.5"/>
  <text x="256" y="452" text-anchor="middle"
        font-family="Arial,sans-serif"
        font-size="20" font-weight="600"
        fill="rgba(255,255,255,0.4)" letter-spacing="4">TODAY'S LUNCH</text>
</svg>
